<svg xmlns="http://www.w3.org/2000/svg" xml:space="preserve" style="clip-rule:evenodd;fill-rule:evenodd;image-rendering:optimizeQuality;shape-rendering:geometricPrecision;text-rendering:geometricPrecision" viewBox="0 0 10000 3250"><path d="M7186 899c-194 29-396 55-605 77-1412 145-2588 51-2612-219-19-210 665-466 1628-635-554 155-896 340-865 501 52 282 1101 402 2454 276m-3010 173c-49-340-1389-427-2993-196-360 52-749 125-1112 210 1603-248 3055-114 3103 249 24 185-293 397-822 589 1100-247 1862-587 1824-852" style="fill:#d81f31;fill-rule:nonzero" transform="translate(0 9.36)"/><path d="M4375 1547c93 193 189 373 294 564 41-80 204-374 304-564h13c31 262 51 485 84 720-16-3-32-5-48-5s-32 2-48 5c-15-183-29-353-50-528h-2c-94 171-188 339-269 523h-9c-80-170-174-346-263-523h-2c-19 169-48 412-49 528-12-3-23-5-36-5-12 0-23 2-36 5 36-226 77-503 100-720zm1028 220c144 0 212 96 212 209 0 14-1 27-2 40-73-1-146-3-219-3-45 0-89 2-134 3-1 10-1 20-1 29 0 106 64 189 177 189 54 0 118-32 154-73l5 4-6 50c-41 32-108 62-171 62-148 0-249-104-249-240 0-166 84-270 234-270m-141 210c42 1 90 3 133 3 45 0 93-2 136-3 0-72-19-177-125-177-101 0-139 104-144 177m574-336h5c-4 51-6 101-8 151 15 0 62-1 109-3-1 7-1 14-1 21 0 8 0 15 1 22-36-2-84-2-109-2-2 10-7 171-7 260 0 77 2 154 83 154 11 0 33-3 46-7v25c-23 8-53 15-79 15-85 0-126-48-126-128 0-75 6-167 8-319-21 0-43 0-70 2 1-8 2-15 2-24 0-7-1-13-2-20 31 2 53 3 67 3-1-27-2-71-4-115zm228 186c61-46 110-60 164-60 99 0 166 61 166 152 0 77-4 152-4 238 0 34 0 76 40 76 6 0 14 0 21-4v23c-14 6-38 14-65 14-44 0-67-29-71-64-49 50-91 75-160 75s-137-48-137-126c0-82 56-126 145-140 148-24 153-32 153-72 0-68-30-129-112-129-54 0-106 26-129 70h-11zm252 182c-70 23-214 16-214 128 0 64 44 97 89 97 53 0 98-34 121-72zm262 122c22 48 74 106 162 106 91 0 146-66 146-148 0-189-322-108-322-348 0-114 86-194 222-194 64 0 110 16 151 49-12 23-19 47-27 85h-13c-14-37-45-96-122-96-76 0-132 52-132 127 0 192 323 112 323 338 0 125-93 230-251 230-85 0-133-30-169-58 13-32 16-52 20-91zm426-353c15 3 31 5 47 5 15 0 31-2 47-5 42 129 96 257 152 393 57-118 112-264 153-393 11 3 22 5 34 5 11 0 22-2 33-5-37 74-286 619-329 758-11-3-24-5-35-5s-24 2-35 5c54-89 99-179 137-268-47-123-176-426-204-490m545 391c14 27 58 70 116 70 51 0 99-31 99-92 0-127-242-52-242-225 0-89 62-155 170-155 50 0 82 19 114 29-11 20-23 57-25 73h-12c-10-33-44-64-90-64-40 0-87 26-87 86 0 133 241 51 241 224 0 78-70 162-184 162-62 0-103-17-132-34 8-17 20-54 20-74zm509-528h5c-4 51-6 101-8 151 15 0 62-1 109-3-1 7-1 14-1 21 0 8 0 15 1 22-36-2-84-2-109-2-2 10-7 171-7 260 0 77 2 154 83 154 11 0 33-3 46-7v25c-24 8-53 15-79 15-85 0-126-48-126-128 0-75 6-167 7-319-20 0-43 0-69 2 1-8 2-15 2-24 0-7-1-13-2-20 31 2 53 3 67 3-1-27-2-71-4-115zm405 126c143 0 211 96 211 209 0 14-1 27-2 40-73-1-146-3-219-3-45 0-89 2-134 3-1 10-1 20-1 29 0 106 64 189 177 189 55 0 118-32 154-73l5 4-6 50c-41 32-108 62-171 62-148 0-249-104-249-240 0-166 84-270 235-270m-142 210c42 1 90 3 133 3 45 0 93-2 136-3 0-72-19-177-125-177-101 0-139 104-144 177m478-8c0-61-2-133-8-191 15 3 31 5 46 5 10 0 26-2 41-5-2 27-3 54-3 82h2c37-63 87-93 152-93 70 0 135 43 149 102h2c33-66 92-102 164-102 89 0 156 46 156 162 0 47-6 106-6 226 0 37 0 69 3 112-14-3-28-5-44-5-15 0-31 2-45 5 4-38 10-140 10-324 0-68-26-122-106-122-49 0-84 22-102 48-22 30-25 41-25 235 0 59 2 99 5 163-15-3-31-5-45-5s-30 2-45 5c6-77 9-158 9-232 0-127-1-136-18-167-14-26-51-47-85-47-88 0-131 61-131 167v87c0 62 2 134 8 192-15-3-31-5-46-5s-31 2-46 5c6-58 8-130 8-192zm861 200c14 27 58 70 116 70 51 0 99-31 99-92 0-127-242-52-242-225 0-89 62-155 170-155 50 0 82 19 114 29-12 20-23 57-25 73h-12c-10-33-44-64-90-64-40 0-87 26-87 86 0 133 241 51 241 224 0 78-70 162-184 162-62 0-103-17-132-34 8-17 20-54 20-74z" style="fill:#2b2a29;fill-rule:nonzero" transform="translate(0 9.36)"/></svg>