<svg xmlns="http://www.w3.org/2000/svg" viewBox="-1.25 -1.25 111.28 44.07"><path d="M46.97 18.53c-5.17.05-8.9 1.1-11.22 3.66-3.57 3.94-5.31 12.4-2.4 16.31 2.87 3.88 11.3 3.17 17.34 2.69.94-.12 1.03-1.03 1.03-1.03l1.53-6.13-1.31-.03c-.14 1.03-.9.98-1.9 1.22-1.01.24-7.3.56-8.7 0s-2.68-1.35-1.93-5.1c.74-3.74 1.8-5.07 4.03-5.46 2.23-.4 6.48-.46 7.9 0 1.24.4 1.35.83 1.35 1.43l1.53.04 1.28-6.2c.07-.49-.35-.87-.6-.9a67 67 0 0 0-7.93-.5m24.53 0c-5.17.05-8.93 1.1-11.25 3.66-3.57 3.94-5.28 12.4-2.37 16.31 2.87 3.88 11.27 3.17 17.3 2.69.95-.12 1.07-1.03 1.07-1.03l1.53-6.13-1.31-.03c-.14 1.03-.9.98-1.9 1.22-1.01.24-7.3.56-8.7 0s-2.68-1.35-1.93-5.1c.74-3.74 1.8-5.07 4.03-5.46 2.23-.4 6.45-.46 7.87 0 1.24.4 1.35.83 1.35 1.43l1.56.04 1.28-6.2c.07-.49-.35-.87-.6-.9a67 67 0 0 0-7.93-.5m-67.19.56-.25 1.29c1.05 0 1.33.25 1.16 1.09 0 0-2.98 15.27-3.34 16.87-.27 1.18-.29 1.48-1.63 1.5L0 41.16h8.9l.29-1.32c-.95 0-1.41-.27-1.25-1.09l2.25-11.25 9.44 13.25c.14.25.48.4.75.4h5.06c.77 0 1.5-.42 1.65-1.43l3.63-18.25c.15-.78.33-1.06 1.25-1.06l.25-1.32h-8.25l-.28 1.32c.8 0 1 .35.87 1.03l-2 10-8.43-11.72a1.5 1.5 0 0 0-1.32-.63z" style="fill:#231f20;fill-opacity:1;fill-rule:nonzero;stroke:none"/><path d="m97.53 0-4.9 8.63h6.53zM51.78 9.63l35.94 7.12-7.44 13.9 28.5-21.02zm48.94 7.28-5.4 3.97 7.3 6.62z" style="fill:#2375bb;fill-opacity:1;fill-rule:nonzero;stroke:none"/></svg>