<svg xmlns="http://www.w3.org/2000/svg" fill="none" viewBox="0 0 169 25"><path fill="#e1261c" fill-rule="evenodd" d="M169 24.7h-7.36l-15.6-17.46-16.28 17.46h-7.77L146.33 0zm-47 0h-7.7l-13.6-12.6c3.73 0 7.36-.1 10.7-1.09a4 4 0 0 0 1.59-.76q.7-.57 1.06-1.42a2.5 2.5 0 0 0-.1-1.88c-.96-1.37-2.52-1.68-3.97-1.98l-.1-.01a66 66 0 0 0-14.71-.5h-.1V24.7h-7.83V1.6l15.22-.3c5.39.1 10.6.3 15.3 1.88 1.87.7 4.33 1.88 4.62 4.17.3 1.69-.88 2.97-2.06 3.77a21 21 0 0 1-9.12 2.98l10.7 10.52zm-85.8-7.24.1-.1V1.39h7.35V25H41.3L11.48 8.04V24.7H4.02V4.26c-.45-1.18-1.65-1.78-2.75-2.33l-.29-.14-.98-.4h7.16zm20.52-13.3h26.1V1.39H48.88V24.7h33.95v-2.77h-26l-.1-.1v-8.44h15.9l2.84-2.58H56.73z" clip-rule="evenodd"/></svg>