<svg xmlns="http://www.w3.org/2000/svg" viewBox="0 0 83 20"><path d="M20.11 2.1h5.12c1.9 0 3.13.08 4.2 1.25a4.4 4.4 0 0 1-.08 6.02c-.83.84-1.9 1.34-4.62 1.34h-2.47v6.95h-2.14zm2.15 6.85h2.47c1.4 0 3.55-.08 3.55-2.67 0-2.43-1.98-2.43-3.14-2.43h-2.88zm15.17 8.7c-.17-.5-.17-1.08-.17-1.58a3.5 3.5 0 0 1-3.3 1.92c-2.47 0-3.79-1.42-3.79-3.18 0-.83.33-2.26 1.9-3.18 1.15-.67 2.8-.67 3.7-.67.5 0 .83 0 1.41.09 0-1.34 0-1.93-.41-2.43s-1.24-.67-1.82-.67c-1.97 0-2.14 1.42-2.14 1.84h-1.98c.09-.58.17-1.34.75-2 .82-.93 2.3-1.18 3.46-1.18 1.56 0 3.21.5 3.79 1.6.33.66.33 1.16.33 1.67l-.08 5.18c0 .17 0 1.6.16 2.68h-1.81zm-1.4-5.35c-.83 0-3.88 0-3.88 2.18 0 .67.41 1.84 2.23 1.84.99 0 1.81-.42 2.3-1.17.42-.76.5-1.34.5-2.85-.33.08-.66 0-1.15 0m4.86-10.2h1.98v15.56h-1.98zm10.55 15.56c-.16-.5-.16-1.1-.16-1.6a3.5 3.5 0 0 1-3.3 1.93c-2.47 0-3.8-1.42-3.8-3.18 0-.83.34-2.26 1.9-3.18 1.16-.67 2.8-.67 3.71-.67.5 0 .83 0 1.4.09 0-1.34 0-1.93-.4-2.43-.42-.5-1.24-.67-1.82-.67-1.98 0-2.14 1.42-2.14 1.84h-1.98c.08-.58.16-1.34.74-2 .82-.93 2.3-1.18 3.46-1.18 1.57 0 3.22.5 3.8 1.6.32.66.32 1.16.32 1.67l-.08 5.18c0 .17 0 1.6.17 2.68h-1.82zm-1.32-5.36c-.82 0-3.87 0-3.87 2.18 0 .67.41 1.84 2.22 1.84 1 0 1.82-.42 2.31-1.17.42-.76.5-1.34.5-2.85-.41.08-.66 0-1.16 0M55 8.12V6.86h1.98v1.76c.24-.42.99-1.92 3.38-1.92.99 0 3.87.33 3.87 3.68v7.36h-2.06v-6.86c0-.67-.08-1.34-.58-1.84s-1.23-.75-1.9-.75c-1.48 0-2.8 1.08-2.8 3.26v6.2H54.9V8.11zm9.9-1.26h1.89V4.52l1.98-.67v2.93h2.39v1.5h-2.4v6.45c0 .5 0 1.42 1.4 1.42.42 0 .83-.08 1-.08v1.59c-.33.08-.91.16-1.65.16-1.9 0-2.72-.58-2.72-2.34v-7.2h-1.9V6.86zm7.66-4.77h2.39v2.26h-2.4zm.16 4.77h1.98v10.8h-1.98zm3.88 2.18c0-.75-.09-1.5-.09-2.18h1.98l.09 2.1a2.8 2.8 0 0 1 2.55-2.1 9 9 0 0 1 1.4-.08v2c-.08 0-.24-.08-.4-.08h-.59c-2.39 0-2.88 1.43-2.88 3.27v5.77h-1.98v-8.7zM7.83 0C3.71 0 .33 3.43.33 7.62s3.38 7.61 7.5 7.61 7.5-3.43 7.5-7.61A7.6 7.6 0 0 0 7.83 0m0 12.89a5.2 5.2 0 0 1-5.2-5.27c0-2.93 2.32-5.28 5.2-5.28s5.2 2.35 5.2 5.28a5.3 5.3 0 0 1-5.2 5.27m6.68 1.67L7.83 17.5l-6.68-2.93L0 16.66 7.83 20l7.83-3.35z"/></svg>