<svg xmlns="http://www.w3.org/2000/svg" class="w-auto h-18 max-w-[400px]" viewBox="0 0 407.8 103.6"><path d="M368 68.6h-10v14.5h10v-1.9h-8.2v-4.8h7.7v-1.9h-7.7v-4.1h8.2zm-42.8 6.6v-4.8h3.8c1.2 0 1.8.1 2.3.4s1 1 1 1.9-.4 1.7-1.2 2.1c-.6.3-1.4.4-2.3.4h-3.7Zm3.6-6.6H323v14.5h2.2v-6h3.4c3.6 0 6-1.2 6-4.4s-.6-2.7-1.8-3.4c-.9-.6-2-.8-3.9-.8m14.1 6.8v-4.8h3.8c1.2 0 1.8.1 2.3.4s1 1 1 1.9-.4 1.7-1.2 2.1c-.6.3-1.4.4-2.3.4h-3.7Zm3.6-6.6h-5.8v14.5h2.2v-6h3.4c3.6 0 6-1.2 6-4.4s-.6-2.7-1.8-3.4c-.9-.6-2-.8-3.9-.8m-77.4-.4c-2.5 0-4.6.8-6.1 2.2-1.4 1.4-2.1 3.3-2.1 5.4s.8 4 2.1 5.4c1.5 1.5 3.6 2.2 6.1 2.2 4.8 0 7.9-3 8-7.8h-7.5v1.6h5.1v.2c-.5 3-3.2 4.3-5.7 4.3s-3.1-.6-4.1-1.6a6 6 0 0 1-1.7-4.4c0-3.5 2.4-6 5.8-6s3.8.7 5 2.3l1.7-1.1c-1.7-2-3.6-2.8-6.6-2.8m16.8 7.1v-4.9h3.6c1.1 0 1.9.2 2.3.5.6.4 1 1.1 1 2 0 1.5-1 2.5-3.3 2.5h-3.6Zm4.2-6.6H284v14.5h2.1V77h1.6l6 6.1h2.6l-5.9-6.1c2.9-.1 4.8-1.4 4.8-4.3s-1.6-4.1-4.8-4.1m99.8 0H388v12.2l-10.5-12.2h-2.6v14.5h2.2V70.9l10.4 12.2h2.7zm-73.7 0h-2.1v8.7c0 2-.6 4.2-5.2 4.2s-3.2-.2-4.2-1.3c-.7-.7-1-1.6-1-2.9v-8.7h-2.1v8.7c0 4.2 2.7 6.4 7.3 6.4s7.3-2.1 7.3-6.4zM57.3 42.1c.6.2 1.2.3 1.9.5-.6-.2-1.3-.3-1.9-.5m33.5-15.9-.4.6-2.6 4.3-1.5 2.5.4.3c1.5-1.4 3.1-2.1 4.6-2.1h7.3c.5 0 .6 0 1-.1-.1.5-.1.6-.1 1.1v20.6c0 2.5-.8 4.1-2.5 4.9v.3h11.4v-.3c-1.9-.8-2.5-1.9-2.5-4.7V32.7c0-.5 0-.6-.1-1.1.4.1.6.1 1 .1h5.7c1 0 1.6.3 2.4 1.3l3.9-6.4-.3-.2c-1.7.5-2.3.6-3 .7H94c-1.4 0-1.9 0-2.6-.4-.1 0-.2-.1-.3-.2l-.5-.3Zm42.6 16.2c.1-.5.1-.6.1-1.1v-9.7c0-.5 0-.6-.1-1.1.4.2.6.2 1 .2h4.5c3.8 0 6.1 2.3 6.1 6s-2.2 5.6-6 5.6h-4.7c-.5 0-.6 0-1 .2m7.2-15.4h-15.6v.3c1.7 1.1 2.2 2.3 2.2 4.9v22.4c0 1.7-.7 2.7-2.4 3.5v.3h11.1v-.3c-1.7-.8-2.3-1.9-2.3-4.1V46h1.8c1.4 0 1.8 0 2 .2l8.9 10c.3.3.5.8.5 1.1s-.1.5-.9 1.1v.3h12v-.3c-1.7-.8-3.4-2-4.4-3.2l-6.4-7.1c-1-1.1-1.3-1.4-2.3-2.4 4.2-1.2 6.9-4.7 6.9-8.8s-4.4-9.6-11-9.6m104.8-.1H238L227.4 46c-.8 1.4-.9 1.6-1.5 2.9-.6-1.2-.8-1.6-1.5-2.9l-10.7-18.8h-7.8v.3c1.4 1 1.7 1.8 1.7 3.8s0 2.8-.1 3.6l-1.4 19.2c-.2 2.2-.6 3.1-2.2 4.2v.3h7.6v-.3c-1.2-.9-1.6-1.9-1.6-3.3s0-1.4.1-2.3l.9-12c.2-3 .3-3.8.3-6.6h.2c1.2 2.5 1.5 3.1 2.9 5.7L225 58.7h.2l10.6-19.1c1.4-2.5 1.7-3.1 2.8-5.5h.1c.1 2.7.2 3.4.5 6.3l1.6 12.8c.1 1 .2 1.8.2 2.2 0 1.1-.3 1.6-1.8 2.9v.3h10.5v-.3c-2.2-1.7-2.8-3-3.2-6.1l-2.3-19.1v-1c-.2-1.1-.3-1.9-.3-2.1 0-.9.4-1.6 1.6-2.5v-.3Zm19 27.3c.1-.5.1-.6.1-1.1v-9c0-.5 0-.6-.1-1.1.4.1.6.2 1 .2h4.7c5.4 0 7.8 1.6 7.8 5.2s-2.3 5.7-6.5 5.7h-6c-.5 0-.6 0-1 .2m0-14.6c.1-.5.1-.6.1-1.1v-7c0-.5 0-.6-.1-1.1.4.1.6.2 1 .2h4.1c3.6 0 5.7 1.7 5.7 4.4s-2.2 4.5-6.1 4.5h-3.7c-.5 0-.6 0-1 .2m8.2-13h-17.1v.3c2.2 1.6 2.6 2.4 2.6 5.1v20.9c0 2.3-.5 3.4-2.6 4.9v.3h16.2c8.5 0 13.1-3.2 13.1-9.1s-3.6-7.9-10-8.4v-.3c4.6-.9 6.7-2.9 6.7-6.4s-3.5-7.3-8.9-7.3m44.6-1.2c-1.7.9-2.9 1.1-5 1.1h-20.4v.3c2.1 1.5 2.5 2.3 2.5 4.7v20.6c0 3.2 0 3.3-2.8 5.5v.3h20.9c1.7 0 2.6.3 3.6 1.2h.3l3.1-7.5-.4-.4c-2.2 1.5-3.5 1.9-6.4 1.9h-10.7c-.5 0-.6 0-1 .2.1-.5.1-.6.1-1.1v-8.1c0-.5 0-.6-.1-1.1.4.2.6.2 1 .2h8.3c1.6 0 2.1.3 2.9 1.4l2.5-6.2-.3-.3-.5.2c-1.9.6-2.2.6-4 .6H302c-.5 0-.6 0-1 .2.1-.5.1-.6.1-1.1v-6.1c0-.5 0-.6-.1-1.1.4.2.6.2 1 .2h8.9c1.7 0 2.6.4 4.2 1.8l2.8-7-.3-.3Zm17.1 4.7c.4.2.6.2 1 .2h4.5c3.8 0 6.1 2.3 6.1 6s-2.2 5.6-6 5.6h-4.7c-.5 0-.6 0-1 .2.1-.4.1-.6.1-1.1v-9.7c0-.5 0-.6-.1-1.1m7.2-3.6h-15.6v.3c1.7 1.1 2.2 2.3 2.2 4.9v22.4c0 1.7-.7 2.7-2.4 3.5v.3h11.1v-.3c-1.7-.8-2.3-1.9-2.3-4.1V46h1.8c1.4 0 1.8 0 2 .2l8.9 10c.3.3.5.8.5 1.1s-.1.5-.9 1.1v.3h12v-.3c-1.7-.8-3.4-2-4.4-3.2l-6.4-7.1c-1-1.1-1.3-1.4-2.3-2.4 4.2-1.2 6.9-4.7 6.9-8.8s-4.4-9.6-11-9.6m37.1-.9c-10 0-17.4 7.1-17.4 16.6s7.3 16.3 18 16.3 8.3-.9 13-3.1v-6.4c0-2.3.5-3.3 2.3-4.8v-.3h-10.7v.3c1.9.9 2.5 2 2.5 5.2v2.4c-1.4 1.4-3.8 2.3-6.5 2.3-6.4 0-11.4-5.3-11.4-12.1s4.7-11.9 10.7-11.9 7.6 2.3 9.6 6.8l1.4-7.5c-4.7-2.9-7.4-3.8-11.5-3.8" style="fill:#000f9e"/><path d="M65.7 14.6h-.1l1.1.4c2 .8 2.8 1.4 2.8 2s-1.1 1.1-2.8 1.6c-2.5.7-8.9 1.8-16.9 3.8-7.8 1.9-21.3 7.4-21.4 14.7v.2c.2 7.1 10.8 9.6 22.1 12.9 7.4 2.1 15.6 6.1 16 11.2v.4c0 6-10.9 9.2-19.1 11.5-6.2 1.8-16.2 3-23.1 3s-4.7-.2-6.1-.5c-4.4-1.1-6.5-3.6-6.5-5.3v-.2c0-.4.2-.8.2-.9l-.3.3q-.3.45-.3 1.2c0 1.9 1.8 5.1 8.9 6.4q3.75.6 8.1.6c11.5 0 25.2-2.9 33.2-5.3 10.4-3.1 25.9-8.9 25.9-16v-.3c-.4-7.2-17-11.4-25.6-13.1-13.1-2.6-19.9-7.1-20.1-11.2v-.2c0-3.8 7-5.9 11.1-6.6 3.8-.7 7.2-1.1 12.7-1.9 5.4-.8 3.8-.4 14.5-2.2 4.2-.7 5.6-1.3 5.6-1.9 0-1-3.9-1.7-5.4-2.2-2.4-.7-13.8-2.4-13.8-2.4-.6 0-.9-.1-1.1-.1m108.4 38.8 14.9-17.6c1.4 2 2.2 4.5 2.2 7.2 0 6.7-5 12.2-11.3 12.2s-4.1-.7-5.8-1.8m-5.5-10.4c0-6.7 5-12.2 11.3-12.2s4.1.7 5.8 1.8l-14.9 17.6c-1.4-2-2.2-4.5-2.2-7.2m11.3-16.5c-10.1 0-18.3 7.4-18.3 16.5s2.1 8.7 5.4 11.6l-3.5 4.1h6l1.3-1.5c2.7 1.4 5.8 2.2 9.1 2.2 10.1 0 18.3-7.4 18.3-16.5s-2.1-8.7-5.4-11.6l3.5-4.1h-6l-1.3 1.5c-2.7-1.4-5.8-2.2-9.1-2.2" style="fill:#000f9e"/></svg>